<svg width="20" height="21" viewBox="0 0 20 21" fill="none" xmlns="http://www.w3.org/2000/svg">
<g clip-path="url(#clip0_940_3595)">
<path d="M1.66699 17.1667V16.3333C1.66699 14.7862 2.28157 13.3025 3.37554 12.2085C4.4695 11.1146 5.95323 10.5 7.50033 10.5C9.04742 10.5 10.5312 11.1146 11.6251 12.2085C12.7191 13.3025 13.3337 14.7862 13.3337 16.3333V17.1667" stroke="#31250B" stroke-width="1.5" stroke-linecap="round"/>
<path d="M11.667 12.1667C11.667 11.0616 12.106 10.0018 12.8874 9.22039C13.6688 8.43899 14.7286 8 15.8337 8C16.3808 8 16.9227 8.10777 17.4282 8.31717C17.9337 8.52656 18.393 8.83348 18.7799 9.22039C19.1668 9.6073 19.4738 10.0666 19.6832 10.5722C19.8926 11.0777 20.0003 11.6195 20.0003 12.1667V12.5833" stroke="#31250B" stroke-width="1.5" stroke-linecap="round"/>
<path d="M7.50033 10.5C8.38438 10.5 9.23223 10.1488 9.85735 9.52369C10.4825 8.89857 10.8337 8.05072 10.8337 7.16667C10.8337 6.28261 10.4825 5.43477 9.85735 4.80964C9.23223 4.18452 8.38438 3.83333 7.50033 3.83333C6.61627 3.83333 5.76842 4.18452 5.1433 4.80964C4.51818 5.43477 4.16699 6.28261 4.16699 7.16667C4.16699 8.05072 4.51818 8.89857 5.1433 9.52369C5.76842 10.1488 6.61627 10.5 7.50033 10.5ZM15.8337 8C16.4967 8 17.1326 7.73661 17.6014 7.26777C18.0703 6.79893 18.3337 6.16304 18.3337 5.5C18.3337 4.83696 18.0703 4.20107 17.6014 3.73223C17.1326 3.26339 16.4967 3 15.8337 3C15.1706 3 14.5347 3.26339 14.0659 3.73223C13.5971 4.20107 13.3337 4.83696 13.3337 5.5C13.3337 6.16304 13.5971 6.79893 14.0659 7.26777C14.5347 7.73661 15.1706 8 15.8337 8Z" stroke="#31250B" stroke-width="1.5" stroke-linecap="round" stroke-linejoin="round"/>
</g>
<defs>
<clipPath id="clip0_940_3595">
<rect width="20" height="20" fill="white" transform="translate(0 0.5)"/>
</clipPath>
</defs>
</svg>
