<svg width="25" height="24" viewBox="0 0 25 24" fill="none" xmlns="http://www.w3.org/2000/svg">
<path d="M12.5 22C17.8552 22 22.2272 17.7905 22.4877 12.4999C22.5013 12.2241 22.2761 12 22 12H13C12.7239 12 12.5 11.7761 12.5 11.5V2.5C12.5 2.22386 12.2759 1.9987 12.0001 2.01228C6.70948 2.27276 2.5 6.64479 2.5 12C2.5 17.5228 6.97715 22 12.5 22Z" stroke="white" stroke-width="1.5"/>
<path d="M22.4846 9.49991C22.2367 5.47997 19.02 2.26332 15.0001 2.01538C14.7245 1.99838 14.5 2.22386 14.5 2.5V9.5C14.5 9.77614 14.7239 10 15 10H22C22.2761 10 22.5016 9.77553 22.4846 9.49991Z" stroke="white" stroke-width="1.5"/>
</svg>
