<svg width="25" height="24" viewBox="0 0 25 24" fill="none" xmlns="http://www.w3.org/2000/svg">
<path d="M10.5 21H5.5C4.39543 21 3.5 20.1046 3.5 19V12.2969C3.5 11.7852 3.69615 11.2929 4.04809 10.9215L11.0481 3.53257C11.8369 2.69989 13.163 2.69989 13.9519 3.53257L20.9519 10.9215C21.3038 11.2929 21.5 11.7852 21.5 12.2969V19C21.5 20.1046 20.6046 21 19.5 21H14.5M10.5 21V15.5C10.5 15.2239 10.7239 15 11 15H14C14.2761 15 14.5 15.2239 14.5 15.5V21M10.5 21H14.5" stroke="white" stroke-width="1.5"/>
</svg>
