<svg width="25" height="25" viewBox="0 0 25 25" fill="none" xmlns="http://www.w3.org/2000/svg">
<g clip-path="url(#clip0_940_3724)">
<path d="M2.06152 20.6114V19.5809C2.06152 17.6676 2.82157 15.8327 4.17447 14.4798C5.52736 13.1269 7.36228 12.3668 9.27556 12.3668C11.1888 12.3668 13.0238 13.1269 14.3767 14.4798C15.7296 15.8327 16.4896 17.6676 16.4896 19.5809V20.6114" stroke="#ECECEC" stroke-width="1.5" stroke-linecap="round"/>
<path d="M14.4287 14.428C14.4287 13.0614 14.9716 11.7507 15.938 10.7844C16.9043 9.81804 18.215 9.27515 19.5816 9.27515C20.2583 9.27515 20.9283 9.40843 21.5535 9.66739C22.1787 9.92634 22.7467 10.3059 23.2252 10.7844C23.7037 11.2629 24.0833 11.8309 24.3422 12.4561C24.6012 13.0813 24.7345 13.7513 24.7345 14.428V14.9433" stroke="#ECECEC" stroke-width="1.5" stroke-linecap="round"/>
<path d="M9.27563 12.3669C10.3689 12.3669 11.4175 11.9326 12.1905 11.1595C12.9636 10.3864 13.3979 9.33786 13.3979 8.24456C13.3979 7.15126 12.9636 6.10273 12.1905 5.32965C11.4175 4.55657 10.3689 4.12225 9.27563 4.12225C8.18232 4.12225 7.1338 4.55657 6.36072 5.32965C5.58763 6.10273 5.15332 7.15126 5.15332 8.24456C5.15332 9.33786 5.58763 10.3864 6.36072 11.1595C7.1338 11.9326 8.18232 12.3669 9.27563 12.3669ZM19.5814 9.27514C20.4014 9.27514 21.1878 8.9494 21.7676 8.36959C22.3474 7.78978 22.6731 7.00338 22.6731 6.18341C22.6731 5.36343 22.3474 4.57703 21.7676 3.99722C21.1878 3.41741 20.4014 3.09167 19.5814 3.09167C18.7614 3.09167 17.975 3.41741 17.3952 3.99722C16.8154 4.57703 16.4897 5.36343 16.4897 6.18341C16.4897 7.00338 16.8154 7.78978 17.3952 8.36959C17.975 8.9494 18.7614 9.27514 19.5814 9.27514Z" stroke="#ECECEC" stroke-width="1.5" stroke-linecap="round" stroke-linejoin="round"/>
</g>
<defs>
<clipPath id="clip0_940_3724">
<rect width="24.7339" height="24.7339" fill="white"/>
</clipPath>
</defs>
</svg>
